<?xml version="1.0" standalone="no"?>
<!DOCTYPE svg PUBLIC "-//W3C//DTD SVG 20010904//EN"
 "http://www.w3.org/TR/2001/REC-SVG-20010904/DTD/svg10.dtd">
<svg version="1.0" xmlns="http://www.w3.org/2000/svg"
 width="1426.000000pt" height="842.000000pt" viewBox="0 0 1426.000000 842.000000"
 preserveAspectRatio="xMidYMid meet">

<g transform="translate(0.000000,842.000000) scale(0.100000,-0.100000)"
fill="#000000" stroke="none">
<path d="M10731 8316 c-6 -7 -67 -192 -136 -412 -257 -815 -835 -2673 -835
-2684 0 -6 12 -10 27 -8 28 3 30 9 243 693 119 380 218 697 221 705 3 8 18
-26 33 -75 15 -50 114 -367 220 -705 l191 -615 512 0 c281 0 514 3 518 7 5 5
-761 2483 -936 3030 -22 68 -39 87 -58 64z"/>
<path d="M4180 8314 c-332 -41 -558 -84 -785 -149 -1350 -388 -2420 -1478
-2784 -2836 l-29 -106 76 -7 c98 -8 751 -8 830 0 l61 7 11 56 c163 823 548
1588 1069 2125 579 596 1275 893 2021 862 731 -30 1378 -223 1973 -590 229
-141 411 -280 644 -493 56 -51 109 -93 117 -93 7 0 17 8 20 17 15 38 -350 353
-614 531 -444 299 -1008 528 -1530 621 -263 47 -326 52 -690 56 -195 2 -371 1
-390 -1z"/>
<path d="M1655 5052 l-50 -7 -8 -115 c-9 -141 -5 -2156 5 -2165 11 -11 896
-18 1008 -8 l95 8 0 175 0 175 -70 6 c-38 4 -201 7 -362 8 l-291 1 -4 954 c-1
525 -6 957 -9 960 -9 9 -258 15 -314 8z"/>
<path d="M3020 5040 c-12 -23 -10 -2264 3 -2276 4 -5 253 -10 553 -12 423 -4
547 -2 559 8 12 10 15 43 15 175 0 90 -3 170 -6 179 -5 14 -48 16 -380 16
l-374 0 0 289 0 288 280 5 c204 4 284 9 295 18 12 10 15 42 15 174 0 88 -4
167 -9 175 -8 12 -61 16 -295 19 l-286 5 0 282 0 282 364 5 c281 4 369 8 381
18 13 11 15 38 13 184 l-3 171 -155 6 c-85 4 -336 7 -557 8 -390 1 -403 0
-413 -19z"/>
<path d="M4943 5053 c-28 -4 -34 -10 -42 -41 -42 -162 -435 -1982 -465 -2157
-9 -49 -13 -91 -10 -94 11 -11 353 -6 364 5 11 11 27 86 70 322 l23 122 260
-2 260 -3 32 -165 c18 -91 38 -190 44 -221 l12 -57 54 -7 c75 -9 313 5 318 19
3 6 -9 76 -25 156 -83 415 -423 1977 -451 2070 -13 45 -13 45 -67 52 -59 7
-324 7 -377 1z m296 -1023 l87 -475 -179 -3 c-99 -1 -182 -1 -184 1 -3 4 143
817 169 937 7 31 14 46 16 35 2 -11 43 -234 91 -495z"/>
<path d="M6180 5052 l-35 -7 -8 -175 c-13 -287 -3 -2088 12 -2103 14 -14 344
-18 358 -4 4 5 9 290 11 633 2 443 7 624 14 622 6 -2 42 -92 80 -198 100 -284
337 -935 364 -999 21 -53 25 -56 66 -64 50 -10 295 -4 306 7 10 11 9 2272 -1
2283 -15 14 -344 10 -359 -5 -10 -10 -14 -141 -16 -634 -3 -507 -6 -618 -17
-607 -7 8 -77 194 -155 414 -186 523 -288 799 -304 820 -11 15 -33 18 -147 21
-74 1 -150 0 -169 -4z"/>
<path d="M8895 5051 l-50 -6 -28 -110 c-41 -166 -302 -1366 -411 -1897 -30
-141 -50 -261 -46 -268 7 -12 353 -21 365 -9 3 4 25 105 48 225 l43 219 259 0
260 0 41 -205 c23 -113 45 -213 49 -222 5 -12 25 -18 82 -23 79 -8 279 -2 289
8 8 8 -20 153 -152 767 -159 747 -326 1496 -335 1512 -6 10 -52 13 -186 14
-98 1 -200 -1 -228 -5z m270 -987 c47 -258 88 -479 90 -491 l5 -23 -185 0
-185 0 5 23 c8 35 175 953 175 962 0 39 21 -66 95 -471z"/>
<path d="M10086 5045 c-15 -15 -16 -108 -14 -1145 2 -621 7 -1132 11 -1137 13
-13 344 -10 357 3 8 8 13 128 17 383 l6 371 106 0 c161 1 350 17 408 35 94 28
186 120 213 213 20 66 29 351 21 687 -7 327 -7 330 -33 386 -14 31 -42 75 -63
97 -46 52 -139 99 -208 106 -28 3 -221 8 -428 11 -341 6 -378 5 -393 -10z
m667 -376 c71 -19 72 -24 72 -375 0 -237 -3 -317 -13 -335 -25 -47 -47 -54
-204 -57 l-148 -4 0 391 0 391 128 0 c70 0 144 -5 165 -11z"/>
<path d="M11624 5053 l-102 -4 -7 -327 c-9 -388 -2 -1949 9 -1960 10 -10 352
-9 363 1 4 5 9 176 11 381 l4 373 212 7 c116 3 236 12 267 20 110 25 189 91
237 195 32 70 41 188 41 556 0 368 -8 474 -44 553 -43 95 -120 159 -230 189
-52 13 -554 25 -761 16z m576 -386 c66 -23 70 -42 70 -377 0 -400 7 -388 -237
-389 l-133 -1 0 390 0 390 133 -1 c74 0 147 -5 167 -12z"/>
<path d="M418 5035 c-117 -32 -195 -101 -240 -212 l-23 -58 -3 -847 c-3 -837
-2 -848 18 -909 38 -111 95 -176 194 -219 59 -27 320 -45 503 -36 236 12 339
73 403 241 22 56 23 76 24 282 1 122 -3 225 -7 230 -11 10 -343 11 -353 0 -4
-4 -10 -77 -13 -162 -6 -152 -6 -155 -34 -182 -26 -27 -32 -28 -143 -31 -126
-4 -163 5 -189 44 -14 21 -15 103 -13 734 l3 710 28 27 c27 28 29 28 157 28
128 0 130 0 157 -28 27 -27 28 -30 34 -181 3 -84 9 -158 13 -165 10 -16 342
-16 352 1 13 20 17 268 6 380 -19 202 -100 310 -267 354 -69 19 -540 18 -607
-1z"/>
<path d="M13220 5036 c-105 -29 -183 -95 -225 -187 -37 -83 -44 -179 -45 -590
l0 -335 31 -30 c24 -23 97 -51 377 -145 l347 -116 3 -214 c3 -232 0 -249 -50
-275 -32 -16 -212 -20 -252 -4 -14 5 -35 24 -46 42 -17 29 -20 51 -20 168 0
93 -4 140 -12 148 -8 8 -64 12 -185 12 -156 0 -174 -2 -181 -17 -4 -10 -6
-112 -6 -228 2 -192 4 -215 24 -270 44 -117 118 -187 232 -221 55 -16 97 -19
313 -19 229 1 256 3 321 23 118 36 179 94 226 213 20 51 21 76 26 464 4 406 4
410 -17 437 -26 32 -90 57 -458 177 l-283 92 0 217 c0 196 2 220 19 248 27 45
73 57 192 52 92 -3 101 -6 127 -31 27 -27 27 -30 32 -182 3 -85 9 -158 14
-162 10 -10 352 -11 362 -1 12 13 17 305 6 404 -19 183 -102 286 -267 330 -67
18 -540 18 -605 0z"/>
<path d="M830 2592 c0 -15 154 -314 205 -397 592 -976 1518 -1648 2605 -1890
336 -74 606 -100 980 -92 272 6 444 23 675 67 597 114 1175 370 1658 734 245
184 447 367 447 405 0 46 -15 36 -237 -163 -740 -663 -1787 -1034 -2773 -984
-514 26 -1020 229 -1470 588 -210 168 -464 442 -645 695 -184 258 -372 612
-495 933 l-43 112 -453 0 c-250 0 -454 -4 -454 -8z"/>
<path d="M8943 2588 c-6 -7 -76 -227 -158 -488 -81 -261 -212 -684 -292 -940
-172 -554 -268 -873 -276 -917 -6 -28 -4 -33 13 -33 12 0 25 10 30 22 9 21
157 493 571 1826 87 282 159 520 159 528 0 17 -34 19 -47 2z"/>
<path d="M11526 2548 c30 -101 467 -1496 576 -1838 60 -190 121 -379 134 -421
l24 -77 258 -7 c244 -7 749 -2 759 9 11 11 -69 276 -520 1726 l-204 655 -521
3 -521 2 15 -52z"/>
</g>
</svg>
