<?xml version="1.0" standalone="no"?>
<!DOCTYPE svg PUBLIC "-//W3C//DTD SVG 20010904//EN"
 "http://www.w3.org/TR/2001/REC-SVG-20010904/DTD/svg10.dtd">
<svg version="1.0" xmlns="http://www.w3.org/2000/svg"
 width="1108.000000pt" height="838.000000pt" viewBox="0 0 1108.000000 838.000000"
 preserveAspectRatio="xMidYMid meet">

<g transform="translate(0.000000,838.000000) scale(0.100000,-0.100000)"
fill="#000000" stroke="none">
<path d="M3305 8264 c-16 -2 -79 -9 -140 -15 -383 -38 -825 -177 -1160 -366
-268 -151 -463 -300 -696 -533 -278 -278 -433 -495 -604 -845 -82 -166 -165
-389 -205 -545 -11 -43 -20 -81 -20 -84 0 -4 167 -5 371 -4 l372 3 33 145
c204 883 693 1601 1329 1952 304 167 546 235 881 245 737 23 1484 -247 2054
-743 52 -45 111 -98 129 -118 38 -40 71 -47 71 -17 0 21 -156 168 -293 274
-302 235 -696 437 -1052 536 -136 39 -331 79 -470 97 -105 14 -537 27 -600 18z"/>
<path d="M8271 8253 c-8 -16 -126 -392 -581 -1853 -183 -589 -168 -533 -139
-528 22 3 35 40 190 536 91 293 168 534 170 537 4 3 154 -471 316 -997 l24
-78 400 0 c219 0 399 3 399 7 0 12 -732 2357 -741 2376 -6 9 -14 17 -19 17 -5
0 -13 -8 -19 -17z"/>
<path d="M353 5746 c-94 -23 -155 -78 -189 -172 -18 -45 -19 -96 -22 -670 -3
-684 0 -727 55 -807 64 -93 147 -117 400 -117 201 0 269 13 338 66 40 30 79
103 94 172 17 80 15 337 -3 351 -9 8 -57 11 -147 9 l-134 -3 -5 -120 c-3 -66
-9 -128 -14 -138 -14 -30 -41 -37 -133 -37 -99 1 -119 10 -133 61 -13 46 -13
1013 0 1060 13 47 42 59 135 59 78 0 119 -12 132 -39 4 -9 10 -70 13 -136 l5
-120 134 -3 c95 -2 138 1 148 10 23 19 14 345 -12 408 -28 69 -68 113 -132
145 l-58 30 -210 2 c-147 2 -226 -2 -262 -11z"/>
<path d="M1262 5748 c-19 -19 -17 -1741 2 -1757 9 -8 131 -10 432 -9 l419 3 0
145 0 145 -277 3 -278 2 0 728 c0 553 -3 731 -12 740 -8 8 -54 12 -143 12 -89
0 -135 -4 -143 -12z"/>
<path d="M2347 5753 c-4 -3 -7 -401 -7 -884 0 -790 2 -877 16 -883 9 -3 203
-6 433 -6 311 0 420 3 429 12 17 17 17 259 0 276 -9 9 -88 12 -295 12 l-283 0
0 220 0 220 218 0 c156 0 221 3 230 12 17 17 17 259 0 276 -9 9 -74 12 -230
12 l-218 0 0 220 0 220 289 0 c254 0 290 2 295 16 12 30 7 259 -6 272 -9 9
-120 12 -438 12 -235 0 -430 -3 -433 -7z"/>
<path d="M3803 5748 c-10 -14 -16 -39 -63 -258 -16 -74 -59 -272 -95 -440 -36
-168 -79 -366 -95 -440 -15 -74 -51 -240 -79 -368 -28 -127 -48 -239 -45 -247
8 -21 276 -22 293 -2 6 8 25 88 43 178 l33 164 188 3 c221 3 193 26 233 -188
15 -80 31 -151 37 -157 7 -9 49 -13 149 -13 116 0 140 3 145 16 5 14 -22 149
-138 684 -22 102 -56 257 -75 345 -36 170 -49 228 -115 530 -22 105 -46 193
-53 197 -21 14 -352 9 -363 -4z m227 -643 c18 -99 45 -247 61 -330 16 -82 29
-156 29 -162 0 -10 -34 -13 -135 -13 l-136 0 7 38 c3 20 19 105 34 187 15 83
43 229 61 325 22 119 34 169 40 155 4 -11 22 -101 39 -200z"/>
<path d="M4752 5748 c-16 -16 -18 -1719 -2 -1749 10 -17 22 -19 144 -19 99 0
136 3 145 13 7 10 12 158 13 488 l3 473 77 -214 c43 -118 116 -323 163 -455
47 -132 92 -255 100 -272 l15 -33 134 0 c124 0 136 2 146 19 16 31 14 1722 -3
1744 -11 15 -29 17 -152 15 l-140 -3 -5 -485 c-3 -276 -9 -476 -13 -465 -5 11
-83 227 -173 479 -90 253 -170 464 -177 468 -20 13 -261 10 -275 -4z"/>
<path d="M6822 5743 c-10 -20 -30 -101 -67 -278 -14 -66 -39 -181 -55 -255
-16 -74 -60 -281 -99 -460 -39 -179 -90 -418 -115 -532 -25 -115 -43 -215 -40
-223 5 -13 29 -15 153 -13 l146 3 35 175 35 175 188 3 c221 3 193 26 233 -188
15 -80 31 -151 37 -157 7 -9 49 -13 149 -13 159 0 157 -1 140 83 -27 126 -76
354 -137 637 -64 292 -93 430 -150 695 -52 246 -78 350 -89 357 -6 4 -88 8
-183 8 -154 0 -173 -2 -181 -17z m232 -658 c20 -110 48 -259 61 -331 14 -72
25 -136 25 -142 0 -9 -39 -12 -135 -12 l-134 0 4 28 c7 37 68 373 101 552 18
98 30 138 35 125 4 -11 24 -110 43 -220z"/>
<path d="M7772 5748 c-16 -16 -18 -1719 -2 -1749 10 -17 22 -19 140 -19 70 0
135 3 144 6 14 5 16 41 16 294 l0 287 173 6 c213 6 262 19 328 86 76 75 82
104 87 454 4 340 -4 433 -45 509 -33 61 -96 107 -172 125 -76 17 -651 19 -669
1z m533 -300 c41 -18 47 -61 43 -305 -4 -280 5 -266 -163 -272 l-115 -3 0 296
0 296 105 0 c58 0 115 -5 130 -12z"/>
<path d="M8883 5749 c-18 -18 -19 -1739 -1 -1757 17 -17 269 -17 286 0 9 9 12
88 12 294 l0 281 173 6 c191 5 250 19 312 69 92 76 109 172 103 581 -6 334
-12 369 -79 442 -22 23 -63 53 -92 66 -51 23 -60 24 -377 27 -251 2 -328 0
-337 -9z m532 -301 c40 -18 47 -66 43 -309 -4 -276 4 -262 -163 -268 l-115 -3
0 296 0 296 105 0 c58 0 115 -5 130 -12z"/>
<path d="M10190 5747 c-64 -18 -117 -53 -151 -100 -54 -75 -59 -110 -59 -454
l0 -314 24 -23 c16 -17 103 -50 290 -111 l266 -87 0 -168 0 -169 -26 -20 c-22
-18 -41 -21 -111 -21 -76 0 -86 2 -108 25 -23 23 -25 31 -25 132 0 59 -5 115
-10 123 -12 19 -246 28 -279 10 -20 -10 -21 -19 -21 -174 0 -184 11 -239 63
-308 21 -28 53 -54 92 -73 l60 -30 230 0 c219 0 232 1 280 23 63 29 100 64
133 127 l27 50 3 332 3 333 -24 24 c-17 17 -100 49 -291 111 l-266 86 0 169
c0 218 -2 215 133 215 133 0 134 -2 139 -156 2 -93 6 -122 18 -129 24 -15 253
-12 274 3 16 12 17 30 14 197 -3 178 -4 187 -30 235 -33 63 -70 98 -133 127
-46 21 -66 23 -260 25 -147 2 -224 -1 -255 -10z"/>
<path d="M670 3864 c0 -3 31 -67 69 -142 300 -590 794 -1076 1396 -1372 317
-156 612 -246 964 -296 152 -21 508 -29 671 -15 631 54 1205 283 1693 675 143
114 267 234 260 252 -10 27 -34 13 -136 -82 -538 -506 -1292 -803 -2042 -805
-93 0 -210 5 -260 11 -351 43 -708 202 -1020 453 -106 85 -310 298 -411 428
-162 207 -324 496 -433 769 l-50 125 -351 3 c-192 1 -350 0 -350 -4z"/>
<path d="M6892 3838 c-5 -18 -132 -426 -282 -906 -149 -480 -269 -880 -266
-888 8 -20 34 -18 40 4 13 44 559 1798 563 1809 3 9 -4 13 -20 13 -21 0 -28
-7 -35 -32z"/>
<path d="M8885 3843 c3 -16 131 -428 284 -918 l277 -890 397 -3 c368 -2 397
-1 397 15 0 9 -122 408 -271 887 -150 479 -276 886 -281 904 l-9 32 -400 0
-401 0 7 -27z"/>
<path d="M1990 780 l0 -460 50 0 50 0 0 45 c0 25 2 45 4 45 2 0 19 -15 39 -34
94 -88 266 -87 360 2 123 116 127 422 7 542 -93 93 -264 92 -363 -1 -22 -22
-42 -39 -44 -39 -1 0 -3 81 -3 180 l0 180 -50 0 -50 0 0 -460z m383 106 c77
-33 110 -103 110 -236 1 -171 -61 -252 -193 -252 -129 0 -200 87 -200 247 0
126 43 213 120 244 37 14 126 13 163 -3z"/>
<path d="M6110 828 c0 -373 2 -416 18 -448 21 -43 72 -70 132 -70 62 0 73 9
65 54 -7 35 -9 36 -50 36 -27 0 -47 6 -56 17 -11 13 -15 96 -17 420 l-3 403
-45 0 -44 0 0 -412z"/>
<path d="M84 1173 c3 -10 46 -198 96 -418 50 -220 94 -408 96 -417 4 -15 17
-18 72 -18 l67 0 90 330 c50 181 93 330 97 330 4 0 14 -24 22 -52 18 -64 140
-505 156 -565 l11 -43 68 0 67 0 97 428 c54 235 97 431 97 435 0 4 -21 7 -47
5 l-47 -3 -81 -355 c-45 -195 -85 -355 -90 -355 -5 0 -52 160 -105 355 l-96
355 -50 3 -49 3 -94 -350 c-89 -331 -105 -382 -114 -371 -2 3 -40 165 -84 360
l-80 355 -52 3 c-47 3 -52 1 -47 -15z"/>
<path d="M3090 755 l0 -437 203 4 c174 4 210 7 260 25 108 40 187 119 224 227
22 61 25 287 6 351 -21 67 -75 147 -127 186 -84 64 -125 73 -358 77 l-208 3 0
-436z m359 345 c178 -29 248 -137 239 -371 -5 -132 -28 -199 -85 -249 -61 -54
-95 -63 -255 -68 l-148 -4 0 351 0 351 93 0 c50 0 121 -5 156 -10z"/>
<path d="M10648 1123 c-15 -4 -18 -16 -18 -74 l0 -69 -60 0 -60 0 0 -40 0 -39
58 -3 57 -3 5 -240 c6 -274 9 -288 83 -324 47 -23 119 -27 178 -11 52 15 65
32 49 70 -14 33 -21 36 -52 19 -11 -6 -40 -11 -65 -11 -36 0 -51 6 -72 26
l-26 26 -3 225 -3 225 105 0 106 0 0 40 0 40 -105 0 -105 0 0 75 0 75 -27 -1
c-16 -1 -36 -3 -45 -6z"/>
<path d="M1438 973 c-66 -22 -122 -73 -155 -141 -24 -49 -28 -71 -32 -164 -4
-143 14 -203 84 -275 64 -65 131 -88 244 -81 106 6 164 38 215 119 17 27 17
27 -20 50 -36 22 -37 22 -50 4 -8 -10 -14 -22 -14 -26 0 -5 -20 -20 -45 -34
-35 -21 -58 -27 -109 -27 -117 -1 -189 64 -203 181 l-6 51 231 0 231 0 3 38
c6 69 -11 163 -36 206 -59 100 -206 143 -338 99z m192 -85 c49 -25 75 -67 86
-135 l7 -43 -188 0 -187 0 7 33 c11 53 44 114 72 132 61 40 139 45 203 13z"/>
<path d="M4160 975 c-139 -44 -219 -211 -192 -396 28 -187 137 -277 323 -267
94 6 159 35 200 91 36 50 36 58 -2 81 l-30 18 -35 -40 c-19 -22 -51 -46 -70
-52 -46 -16 -122 -16 -167 -1 -67 22 -117 103 -117 189 l0 32 231 0 231 0 -4
93 c-6 127 -42 193 -133 240 -52 26 -171 33 -235 12z m187 -86 c49 -24 76 -67
87 -136 l6 -43 -185 0 -185 0 0 23 c0 28 42 118 63 136 52 42 149 51 214 20z"/>
<path d="M5558 973 c-66 -22 -122 -73 -155 -141 -24 -49 -28 -71 -32 -164 -4
-143 14 -203 84 -275 64 -65 131 -88 244 -81 106 6 164 38 215 119 17 27 17
27 -20 50 -36 22 -37 22 -50 4 -8 -10 -14 -22 -14 -26 0 -5 -20 -20 -45 -34
-35 -21 -58 -27 -109 -27 -117 -1 -189 64 -203 181 l-6 51 231 0 231 0 3 38
c6 69 -11 163 -36 206 -59 100 -206 143 -338 99z m192 -85 c49 -25 75 -67 86
-135 l7 -43 -188 0 -187 0 7 33 c11 53 44 114 72 132 61 40 139 45 203 13z"/>
<path d="M6629 976 c-96 -34 -157 -98 -185 -193 -24 -81 -16 -240 16 -311 44
-102 145 -162 270 -162 167 0 276 98 300 270 27 191 -53 353 -194 395 -61 18
-158 19 -207 1z m223 -108 c51 -39 71 -88 76 -190 10 -193 -53 -280 -200 -280
-141 0 -204 90 -196 277 5 109 31 167 93 203 34 19 51 22 116 20 64 -3 81 -7
111 -30z"/>
<path d="M7453 974 c-23 -8 -59 -33 -80 -55 -21 -21 -41 -39 -45 -39 -5 0 -8
23 -8 50 l0 50 -45 0 -45 0 0 -465 0 -465 45 0 45 0 0 174 c0 101 4 177 10
181 5 3 16 -5 24 -18 9 -13 35 -34 58 -48 61 -35 191 -35 261 0 104 51 153
168 145 343 -8 149 -50 233 -142 280 -54 28 -165 34 -223 12z m190 -106 c53
-41 72 -101 72 -228 -1 -88 -4 -112 -23 -147 -22 -42 -59 -75 -100 -88 -38
-11 -117 -7 -155 9 -149 62 -152 404 -4 471 20 9 57 14 103 12 60 -2 76 -7
107 -29z"/>
<path d="M8230 977 c-19 -6 -54 -31 -78 -54 -23 -24 -45 -43 -47 -43 -3 0 -5
23 -5 50 l0 50 -45 0 -45 0 0 -330 0 -330 49 0 50 0 3 228 c3 207 5 230 24
267 41 78 138 114 211 79 61 -30 63 -40 63 -321 l0 -253 50 0 50 0 0 195 c0
106 5 218 11 247 23 107 132 172 222 134 69 -28 72 -40 75 -323 l3 -253 45 0
44 0 0 259 c0 166 -4 270 -11 292 -47 139 -252 163 -359 42 -22 -26 -42 -44
-43 -42 -2 2 -14 21 -27 43 -40 67 -143 94 -240 63z"/>
<path d="M9290 975 c-139 -44 -219 -211 -192 -396 28 -187 137 -277 323 -267
94 6 159 35 200 91 36 50 36 58 -2 81 l-30 18 -35 -40 c-19 -22 -51 -46 -70
-52 -46 -16 -122 -16 -167 -1 -67 22 -117 103 -117 189 l0 32 231 0 231 0 -4
93 c-6 127 -42 193 -133 240 -52 26 -171 33 -235 12z m187 -86 c49 -24 76 -67
87 -136 l6 -43 -185 0 -185 0 0 23 c0 28 42 118 63 136 52 42 149 51 214 20z"/>
<path d="M10067 976 c-45 -17 -62 -29 -104 -75 l-32 -36 -1 58 0 57 -45 0 -45
0 0 -330 0 -330 44 0 43 0 5 213 c5 226 13 263 61 315 49 53 145 72 214 43 65
-27 68 -38 71 -318 l3 -253 50 0 49 0 0 213 c0 302 -16 374 -92 424 -48 32
-161 42 -221 19z"/>
<path d="M4632 966 c2 -8 57 -156 123 -330 l120 -316 67 0 67 0 29 78 c17 42
69 178 115 302 47 124 90 238 96 253 l11 28 -52 -3 -52 -3 -101 -267 c-55
-147 -104 -268 -110 -269 -5 -1 -41 79 -78 177 -37 98 -84 221 -103 272 l-36
92 -50 0 c-37 0 -49 -3 -46 -14z"/>
</g>
</svg>
